# This file uses centimeters as units for non-parametric coordinates.

mtllib smooth_cube.mtl
g default
v -2.000000 -1.125013 1.875013
v -1.990486 -1.172843 1.875013
v -1.963392 -1.213392 1.875013
v -1.922843 -1.240486 1.875013
v -1.875013 -1.250000 1.875013
v -1.875013 -1.240486 1.922843
v -1.875013 -1.213392 1.963392
v -1.875013 -1.172843 1.990486
v -1.875013 -1.125013 2.000000
v -1.922843 -1.125013 1.990486
v -1.963392 -1.125013 1.963392
v -1.990486 -1.125013 1.922843
v 1.875013 -1.250000 1.875013
v 1.922843 -1.240486 1.875013
v 1.963392 -1.213392 1.875013
v 1.990486 -1.172843 1.875013
v 2.000000 -1.125013 1.875013
v 1.990486 -1.125013 1.922843
v 1.963392 -1.125013 1.963392
v 1.922843 -1.125013 1.990486
v 1.875013 -1.125013 2.000000
v 1.875013 -1.172843 1.990486
v 1.875013 -1.213392 1.963392
v 1.875013 -1.240486 1.922843
v -1.875013 1.250000 1.875013
v -1.922843 1.240486 1.875013
v -1.963392 1.213392 1.875013
v -1.990486 1.172843 1.875013
v -2.000000 1.125013 1.875013
v -1.990486 1.125013 1.922843
v -1.963392 1.125013 1.963392
v -1.922843 1.125013 1.990486
v -1.875013 1.125013 2.000000
v -1.875013 1.172843 1.990486
v -1.875013 1.213392 1.963392
v -1.875013 1.240486 1.922843
v 2.000000 1.125013 1.875013
v 1.990486 1.172843 1.875013
v 1.963392 1.213392 1.875013
v 1.922843 1.240486 1.875013
v 1.875013 1.250000 1.875013
v 1.875013 1.240486 1.922843
v 1.875013 1.213392 1.963392
v 1.875013 1.172843 1.990486
v 1.875013 1.125013 2.000000
v 1.922843 1.125013 1.990486
v 1.963392 1.125013 1.963392
v 1.990486 1.125013 1.922843
v -1.875013 1.125013 -2.000000
v -1.922843 1.125013 -1.990486
v -1.963392 1.125013 -1.963392
v -1.990486 1.125013 -1.922843
v -2.000000 1.125013 -1.875013
v -1.990486 1.172843 -1.875013
v -1.963392 1.213392 -1.875013
v -1.922843 1.240486 -1.875013
v -1.875013 1.250000 -1.875013
v -1.875013 1.240486 -1.922843
v -1.875013 1.213392 -1.963392
v -1.875013 1.172843 -1.990486
v 2.000000 1.125013 -1.875013
v 1.990486 1.125013 -1.922843
v 1.963392 1.125013 -1.963392
v 1.922843 1.125013 -1.990486
v 1.875013 1.125013 -2.000000
v 1.875013 1.172843 -1.990486
v 1.875013 1.213392 -1.963392
v 1.875013 1.240486 -1.922843
v 1.875013 1.250000 -1.875013
v 1.922843 1.240486 -1.875013
v 1.963392 1.213392 -1.875013
v 1.990486 1.172843 -1.875013
v -1.875013 -1.250000 -1.875013
v -1.922843 -1.240486 -1.875013
v -1.963392 -1.213392 -1.875013
v -1.990486 -1.172843 -1.875013
v -2.000000 -1.125013 -1.875013
v -1.990486 -1.125013 -1.922843
v -1.963392 -1.125013 -1.963392
v -1.922843 -1.125013 -1.990486
v -1.875013 -1.125013 -2.000000
v -1.875013 -1.172843 -1.990486
v -1.875013 -1.213392 -1.963392
v -1.875013 -1.240486 -1.922843
v 2.000000 -1.125013 -1.875013
v 1.990486 -1.172843 -1.875013
v 1.963392 -1.213392 -1.875013
v 1.922843 -1.240486 -1.875013
v 1.875013 -1.250000 -1.875013
v 1.875013 -1.240486 -1.922843
v 1.875013 -1.213392 -1.963392
v 1.875013 -1.172843 -1.990486
v 1.875013 -1.125013 -2.000000
v 1.922843 -1.125013 -1.990486
v 1.963392 -1.125013 -1.963392
v 1.990486 -1.125013 -1.922843
v -1.981696 -1.171023 1.921023
v -1.958346 -1.208346 1.915838
v -1.921023 -1.231696 1.921023
v -1.915838 -1.208346 1.958346
v -1.921023 -1.171023 1.981696
v -1.958346 -1.165838 1.958346
v -1.946135 -1.196135 1.946135
v 1.921023 -1.231696 1.921023
v 1.958346 -1.208346 1.915838
v 1.981696 -1.171023 1.921023
v 1.958346 -1.165838 1.958346
v 1.921023 -1.171023 1.981696
v 1.915838 -1.208346 1.958346
v 1.946135 -1.196135 1.946135
v -1.921023 1.231696 1.921023
v -1.958346 1.208346 1.915838
v -1.981696 1.171023 1.921023
v -1.958346 1.165838 1.958346
v -1.921023 1.171023 1.981696
v -1.915838 1.208346 1.958346
v -1.946135 1.196135 1.946135
v 1.981696 1.171023 1.921023
v 1.958346 1.208346 1.915838
v 1.921023 1.231696 1.921023
v 1.915838 1.208346 1.958346
v 1.921023 1.171023 1.981696
v 1.958346 1.165838 1.958346
v 1.946135 1.196135 1.946135
v -1.921023 1.171023 -1.981696
v -1.958346 1.165838 -1.958346
v -1.981696 1.171023 -1.921023
v -1.958346 1.208346 -1.915838
v -1.921023 1.231696 -1.921023
v -1.915838 1.208346 -1.958346
v -1.946135 1.196135 -1.946135
v 1.981696 1.171023 -1.921023
v 1.958346 1.165838 -1.958346
v 1.921023 1.171023 -1.981696
v 1.915838 1.208346 -1.958346
v 1.921023 1.231696 -1.921023
v 1.958346 1.208346 -1.915838
v 1.946135 1.196135 -1.946135
v -1.921023 -1.231696 -1.921023
v -1.958346 -1.208346 -1.915838
v -1.981696 -1.171023 -1.921023
v -1.958346 -1.165838 -1.958346
v -1.921023 -1.171023 -1.981696
v -1.915838 -1.208346 -1.958346
v -1.946135 -1.196135 -1.946135
v 1.981696 -1.171023 -1.921023
v 1.958346 -1.208346 -1.915838
v 1.921023 -1.231696 -1.921023
v 1.915838 -1.208346 -1.958346
v 1.921023 -1.171023 -1.981696
v 1.958346 -1.165838 -1.958346
v 1.946135 -1.196135 -1.946135
vt 0.377288 0.992188
vt 0.132812 0.003661
vt 0.382812 0.003661
vt 0.617188 0.997712
vt 0.367188 0.012499
vt 0.372712 0.012499
vt 0.377288 0.237501
vt 0.632812 0.003661
vt 0.622712 0.757812
vt 0.617188 0.012499
vt 0.622712 0.012499
vt 0.627288 0.237501
vt 0.367188 0.237501
vt 0.367188 0.246339
vt 0.377288 0.492188
vt 0.382812 0.257812
vt 0.382812 0.252288
vt 0.617188 0.246339
vt 0.617188 0.237501
vt 0.617188 0.257812
vt 0.622712 0.257812
vt 0.867188 0.246339
vt 0.132812 0.237501
vt 0.127288 0.237501
vt 0.377288 0.737501
vt 0.382812 0.512499
vt 0.382812 0.503661
vt 0.617188 0.497712
vt 0.617188 0.492188
vt 0.617188 0.512499
vt 0.622712 0.512499
vt 0.872712 0.012499
vt 0.867188 0.012499
vt 0.382812 0.757812
vt 0.382812 0.752288
vt 0.617188 0.746339
vt 0.617188 0.737501
vt 0.367188 0.007716
vt 0.367188 0.003661
vt 0.377603 0.994740
vt 0.379822 0.992188
vt 0.382812 0.992188
vt 0.382812 0.995178
vt 0.382812 0.997712
vt 0.380260 0.004165
vt 0.382812 0.007716
vt 0.382812 0.012499
vt 0.379822 0.012499
vt 0.377288 0.012499
vt 0.372397 0.008416
vt 0.370178 0.012499
vt 0.370064 0.007898
vt 0.369740 0.004165
vt 0.371633 0.005387
vt 0.379936 0.995064
vt 0.380260 0.997397
vt 0.378367 0.996633
vt 0.379936 0.007898
vt 0.377603 0.008416
vt 0.378367 0.005387
vt 0.617188 0.992188
vt 0.620178 0.992188
vt 0.622712 0.992188
vt 0.630260 0.004165
vt 0.632812 0.007716
vt 0.632812 0.012499
vt 0.629822 0.012499
vt 0.627288 0.012499
vt 0.622397 0.008416
vt 0.620178 0.012499
vt 0.617188 0.007716
vt 0.617188 0.003661
vt 0.619740 0.997397
vt 0.617188 0.995178
vt 0.620064 0.995064
vt 0.622397 0.994740
vt 0.621633 0.996633
vt 0.629936 0.007898
vt 0.627603 0.008416
vt 0.628367 0.005387
vt 0.620064 0.007898
vt 0.619740 0.004165
vt 0.621633 0.005387
vt 0.379822 0.257812
vt 0.377288 0.257812
vt 0.369740 0.245835
vt 0.367188 0.242284
vt 0.370178 0.237501
vt 0.372712 0.237501
vt 0.377603 0.241584
vt 0.379822 0.237501
vt 0.382812 0.237501
vt 0.382812 0.242284
vt 0.382812 0.246339
vt 0.380260 0.252603
vt 0.382812 0.254822
vt 0.379936 0.254936
vt 0.377603 0.255260
vt 0.378367 0.253367
vt 0.370064 0.242102
vt 0.372397 0.241584
vt 0.371633 0.244613
vt 0.379936 0.242102
vt 0.380260 0.245835
vt 0.378367 0.244613
vt 0.632812 0.237501
vt 0.632812 0.242284
vt 0.632812 0.246339
vt 0.622397 0.255260
vt 0.620178 0.257812
vt 0.617188 0.254822
vt 0.617188 0.252288
vt 0.619740 0.245835
vt 0.617188 0.242284
vt 0.620178 0.237501
vt 0.622712 0.237501
vt 0.627603 0.241584
vt 0.629822 0.237501
vt 0.629936 0.242102
vt 0.630260 0.245835
vt 0.628367 0.244613
vt 0.620064 0.254936
vt 0.619740 0.252603
vt 0.621633 0.253367
vt 0.620064 0.242102
vt 0.622397 0.241584
vt 0.621633 0.244613
vt 0.379822 0.512499
vt 0.377288 0.512499
vt 0.127603 0.241584
vt 0.129822 0.237501
vt 0.132812 0.242284
vt 0.132812 0.246339
vt 0.377603 0.494740
vt 0.379822 0.492188
vt 0.382812 0.492188
vt 0.382812 0.495178
vt 0.382812 0.497712
vt 0.380260 0.504165
vt 0.382812 0.507716
vt 0.379936 0.507898
vt 0.377603 0.508416
vt 0.378367 0.505387
vt 0.129936 0.242102
vt 0.130260 0.245835
vt 0.128367 0.244613
vt 0.379936 0.495064
vt 0.380260 0.497397
vt 0.378367 0.496633
vt 0.867188 0.237501
vt 0.870178 0.237501
vt 0.872712 0.237501
vt 0.622397 0.508416
vt 0.620178 0.512499
vt 0.617188 0.507716
vt 0.617188 0.503661
vt 0.619740 0.497397
vt 0.617188 0.495178
vt 0.620178 0.492188
vt 0.622712 0.492188
vt 0.869740 0.245835
vt 0.867188 0.242284
vt 0.870064 0.242102
vt 0.872397 0.241584
vt 0.871633 0.244613
vt 0.620064 0.507898
vt 0.619740 0.504165
vt 0.621633 0.505387
vt 0.620064 0.495064
vt 0.622397 0.494740
vt 0.621633 0.496633
vt 0.379822 0.757812
vt 0.377288 0.757812
vt 0.130260 0.004165
vt 0.132812 0.007716
vt 0.132812 0.012499
vt 0.129822 0.012499
vt 0.127288 0.012499
vt 0.377603 0.741584
vt 0.379822 0.737501
vt 0.382812 0.737501
vt 0.382812 0.742284
vt 0.382812 0.746339
vt 0.380260 0.752603
vt 0.382812 0.754822
vt 0.379936 0.754936
vt 0.377603 0.755260
vt 0.378367 0.753367
vt 0.129936 0.007898
vt 0.127603 0.008416
vt 0.128367 0.005387
vt 0.379936 0.742102
vt 0.380260 0.745835
vt 0.378367 0.744613
vt 0.867188 0.007716
vt 0.867188 0.003661
vt 0.622397 0.755260
vt 0.620178 0.757812
vt 0.617188 0.757812
vt 0.617188 0.754822
vt 0.617188 0.752288
vt 0.619740 0.745835
vt 0.617188 0.742284
vt 0.620178 0.737501
vt 0.622712 0.737501
vt 0.872397 0.008416
vt 0.870178 0.012499
vt 0.870064 0.007898
vt 0.869740 0.004165
vt 0.871633 0.005387
vt 0.620064 0.754936
vt 0.619740 0.752603
vt 0.621633 0.753367
vt 0.620064 0.742102
vt 0.622397 0.741584
vt 0.621633 0.744613
vn -0.002503 -0.999994 -0.002503
vn 0.002503 -0.999994 -0.002503
vn 0.002503 -0.999994 0.002503
vn -0.002503 -0.999994 0.002503
vn 0.002502 -0.004137 0.999988
vn 0.002502 0.004137 0.999988
vn -0.002502 0.004137 0.999988
vn -0.002502 -0.004137 0.999988
vn -0.999988 0.004137 0.002502
vn -0.999988 0.004137 -0.002502
vn -0.999988 -0.004137 -0.002502
vn -0.999988 -0.004137 0.002502
vn 0.999988 -0.004137 -0.002502
vn 0.999988 0.004137 -0.002502
vn 0.999988 0.004137 0.002502
vn 0.999988 -0.004137 0.002502
vn 0.002503 0.999994 0.002503
vn 0.002503 0.999994 -0.002503
vn -0.002503 0.999994 -0.002503
vn -0.002503 0.999994 0.002503
vn 0.002502 0.004137 -0.999988
vn 0.002502 -0.004137 -0.999988
vn -0.002502 -0.004137 -0.999988
vn -0.002502 0.004137 -0.999988
vn -0.382504 -0.923951 0.002141
vn -0.382504 -0.923951 -0.002141
vn -0.707105 -0.707106 0.001921
vn -0.707105 -0.707106 -0.001921
vn -0.923951 -0.382504 0.002141
vn -0.923951 -0.382504 -0.002141
vn -0.002141 -0.382504 0.923951
vn 0.002141 -0.382504 0.923951
vn -0.001921 -0.707106 0.707105
vn 0.001921 -0.707106 0.707105
vn -0.002141 -0.923951 0.382504
vn 0.002141 -0.923951 0.382504
vn -0.923996 -0.003542 0.382386
vn -0.923996 0.003542 0.382386
vn -0.707103 -0.003179 0.707104
vn -0.707103 0.003179 0.707104
vn -0.382385 -0.003542 0.923996
vn -0.382385 0.003542 0.923996
vn 0.923951 -0.382504 0.002141
vn 0.923951 -0.382504 -0.002141
vn 0.707105 -0.707106 0.001921
vn 0.707105 -0.707106 -0.001921
vn 0.382504 -0.923951 0.002141
vn 0.382504 -0.923951 -0.002141
vn 0.382385 -0.003542 0.923996
vn 0.382385 0.003542 0.923996
vn 0.707103 -0.003179 0.707104
vn 0.707103 0.003179 0.707104
vn 0.923996 -0.003542 0.382386
vn 0.923996 0.003542 0.382386
vn -0.923951 0.382504 0.002141
vn -0.923951 0.382504 -0.002141
vn -0.707105 0.707106 0.001921
vn -0.707105 0.707106 -0.001921
vn -0.382504 0.923951 0.002141
vn -0.382504 0.923951 -0.002141
vn -0.002141 0.923951 0.382504
vn 0.002141 0.923951 0.382504
vn -0.001921 0.707106 0.707105
vn 0.001921 0.707106 0.707105
vn -0.002141 0.382504 0.923951
vn 0.002141 0.382504 0.923951
vn 0.382504 0.923951 0.002141
vn 0.382504 0.923951 -0.002141
vn 0.707105 0.707106 0.001921
vn 0.707105 0.707106 -0.001921
vn 0.923951 0.382504 0.002141
vn 0.923951 0.382504 -0.002141
vn -0.923996 0.003542 -0.382386
vn -0.923996 -0.003542 -0.382386
vn -0.707103 0.003179 -0.707104
vn -0.707103 -0.003179 -0.707104
vn -0.382385 0.003542 -0.923996
vn -0.382385 -0.003542 -0.923996
vn -0.002141 0.382504 -0.923951
vn 0.002141 0.382504 -0.923951
vn -0.001921 0.707106 -0.707105
vn 0.001921 0.707106 -0.707105
vn -0.002141 0.923951 -0.382504
vn 0.002141 0.923951 -0.382504
vn 0.382385 0.003542 -0.923996
vn 0.382385 -0.003542 -0.923996
vn 0.707103 0.003179 -0.707104
vn 0.707103 -0.003179 -0.707104
vn 0.923996 0.003542 -0.382386
vn 0.923996 -0.003542 -0.382386
vn -0.002141 -0.923951 -0.382504
vn 0.002141 -0.923951 -0.382504
vn -0.001921 -0.707106 -0.707105
vn 0.001921 -0.707106 -0.707105
vn -0.002141 -0.382504 -0.923951
vn 0.002141 -0.382504 -0.923951
vn -0.872191 -0.345892 0.345892
vn -0.673880 -0.673879 0.302941
vn -0.345892 -0.872191 0.345892
vn -0.302941 -0.673879 0.673880
vn -0.345892 -0.345892 0.872191
vn -0.673879 -0.302941 0.673880
vn -0.577350 -0.577350 0.577351
vn 0.345892 -0.872191 0.345892
vn 0.673880 -0.673879 0.302941
vn 0.872191 -0.345892 0.345892
vn 0.673879 -0.302940 0.673880
vn 0.345893 -0.345892 0.872191
vn 0.302940 -0.673880 0.673879
vn 0.577350 -0.577350 0.577351
vn -0.345892 0.872191 0.345892
vn -0.673880 0.673879 0.302941
vn -0.872191 0.345892 0.345892
vn -0.673879 0.302940 0.673880
vn -0.345893 0.345892 0.872191
vn -0.302940 0.673880 0.673879
vn -0.577350 0.577350 0.577351
vn 0.872191 0.345892 0.345892
vn 0.673880 0.673879 0.302941
vn 0.345892 0.872191 0.345892
vn 0.302941 0.673879 0.673880
vn 0.345892 0.345892 0.872191
vn 0.673879 0.302941 0.673880
vn 0.577350 0.577350 0.577351
vn -0.345892 0.345892 -0.872191
vn -0.673879 0.302941 -0.673880
vn -0.872191 0.345892 -0.345892
vn -0.673880 0.673879 -0.302941
vn -0.345892 0.872191 -0.345892
vn -0.302941 0.673879 -0.673880
vn -0.577350 0.577350 -0.577351
vn 0.872191 0.345892 -0.345892
vn 0.673879 0.302940 -0.673880
vn 0.345893 0.345892 -0.872191
vn 0.302940 0.673880 -0.673879
vn 0.345892 0.872191 -0.345892
vn 0.673880 0.673879 -0.302941
vn 0.577350 0.577350 -0.577351
vn -0.345892 -0.872191 -0.345892
vn -0.673880 -0.673879 -0.302941
vn -0.872191 -0.345892 -0.345892
vn -0.673879 -0.302940 -0.673880
vn -0.345893 -0.345892 -0.872191
vn -0.302940 -0.673880 -0.673879
vn -0.577350 -0.577350 -0.577351
vn 0.872191 -0.345892 -0.345892
vn 0.673880 -0.673879 -0.302941
vn 0.345892 -0.872191 -0.345892
vn 0.302941 -0.673879 -0.673880
vn 0.345892 -0.345892 -0.872191
vn 0.673879 -0.302941 -0.673880
vn 0.577350 -0.577350 -0.577351
s 1
g pCube1
usemtl initialShadingGroup
f 73/34/1 89/199/2 13/61/3 5/42/4
f 21/10/5 45/19/6 33/92/7 9/47/8
f 29/13/9 53/23/10 77/176/11 1/5/12
f 85/33/13 61/150/14 37/106/15 17/66/16
f 41/20/17 69/29/18 57/136/19 25/16/20
f 65/30/21 93/37/22 81/181/23 49/26/24
f 5/42/4 4/41/25 74/172/26 73/34/1
f 4/41/25 3/1/27 75/173/28 74/172/26
f 3/39/27 2/38/29 76/175/30 75/2/28
f 2/38/29 1/5/12 77/176/11 76/175/30
f 9/47/8 8/46/31 22/71/32 21/10/5
f 8/46/31 7/3/33 23/72/34 22/71/32
f 7/44/33 6/43/35 24/74/36 23/4/34
f 6/43/35 5/42/4 13/61/3 24/74/36
f 1/5/12 12/51/37 30/88/38 29/13/9
f 12/51/37 11/6/39 31/89/40 30/88/38
f 11/49/39 10/48/41 32/91/42 31/7/40
f 10/48/41 9/47/8 33/92/7 32/91/42
f 17/66/16 16/65/43 86/195/44 85/33/13
f 16/65/43 15/8/45 87/196/46 86/195/44
f 15/63/45 14/62/47 88/198/48 87/9/46
f 14/62/47 13/61/3 89/199/2 88/198/48
f 21/10/5 20/70/49 46/115/50 45/19/6
f 20/70/49 19/11/51 47/116/52 46/115/50
f 19/68/51 18/67/53 48/118/54 47/12/52
f 18/67/53 17/66/16 37/106/15 48/118/54
f 29/13/9 28/87/55 54/132/56 53/23/10
f 28/87/55 27/14/57 55/133/58 54/132/56
f 27/85/57 26/84/59 56/135/60 55/15/58
f 26/84/59 25/16/20 57/136/19 56/135/60
f 25/16/20 36/96/61 42/111/62 41/20/17
f 36/96/61 35/17/63 43/112/64 42/111/62
f 35/94/63 34/93/65 44/114/66 43/18/64
f 34/93/65 33/92/7 45/19/6 44/114/66
f 41/20/17 40/110/67 70/159/68 69/29/18
f 40/110/67 39/21/69 71/160/70 70/159/68
f 39/108/69 38/107/71 72/162/72 71/22/70
f 38/107/71 37/106/15 61/150/14 72/162/72
f 53/23/10 52/131/73 78/177/74 77/176/11
f 52/131/73 51/24/75 79/178/76 78/177/74
f 51/129/75 50/128/77 80/180/78 79/25/76
f 50/128/77 49/26/24 81/181/23 80/180/78
f 49/26/24 60/140/79 66/155/80 65/30/21
f 60/140/79 59/27/81 67/156/82 66/155/80
f 59/138/81 58/137/83 68/158/84 67/28/82
f 58/137/83 57/136/19 69/29/18 68/158/84
f 65/30/21 64/154/85 94/204/86 93/37/22
f 64/154/85 63/31/87 95/205/88 94/204/86
f 63/152/87 62/151/89 96/207/90 95/32/88
f 62/151/89 61/150/14 85/33/13 96/207/90
f 73/34/1 84/185/91 90/200/92 89/199/2
f 84/185/91 83/35/93 91/201/94 90/200/92
f 83/183/93 82/182/95 92/203/96 91/36/94
f 82/182/95 81/181/23 93/37/22 92/203/96
f 12/51/37 1/5/12 2/38/29 97/52/97
f 97/52/97 2/38/29 3/39/27 98/53/98
f 98/40/98 3/1/27 4/41/25 99/55/99
f 4/41/25 5/42/4 6/43/35 99/55/99
f 99/55/99 6/43/35 7/44/33 100/56/100
f 100/45/100 7/3/33 8/46/31 101/58/101
f 8/46/31 9/47/8 10/48/41 101/58/101
f 101/58/101 10/48/41 11/49/39 102/59/102
f 102/50/102 11/6/39 12/51/37 97/52/97
f 102/50/102 97/52/97 98/53/98 103/54/103
f 98/40/98 99/55/99 100/56/100 103/57/103
f 100/45/100 101/58/101 102/59/102 103/60/103
f 24/74/36 13/61/3 14/62/47 104/75/104
f 104/75/104 14/62/47 15/63/45 105/76/105
f 105/64/105 15/8/45 16/65/43 106/78/106
f 16/65/43 17/66/16 18/67/53 106/78/106
f 106/78/106 18/67/53 19/68/51 107/79/107
f 107/69/107 19/11/51 20/70/49 108/81/108
f 20/70/49 21/10/5 22/71/32 108/81/108
f 108/81/108 22/71/32 23/72/34 109/82/109
f 109/73/109 23/4/34 24/74/36 104/75/104
f 109/73/109 104/75/104 105/76/105 110/77/110
f 105/64/105 106/78/106 107/79/107 110/80/110
f 107/69/107 108/81/108 109/82/109 110/83/110
f 36/96/61 25/16/20 26/84/59 111/97/111
f 111/97/111 26/84/59 27/85/57 112/98/112
f 112/86/112 27/14/57 28/87/55 113/100/113
f 28/87/55 29/13/9 30/88/38 113/100/113
f 113/100/113 30/88/38 31/89/40 114/101/114
f 114/90/114 31/7/40 32/91/42 115/103/115
f 32/91/42 33/92/7 34/93/65 115/103/115
f 115/103/115 34/93/65 35/94/63 116/104/116
f 116/95/116 35/17/63 36/96/61 111/97/111
f 116/95/116 111/97/111 112/98/112 117/99/117
f 112/86/112 113/100/113 114/101/114 117/102/117
f 114/90/114 115/103/115 116/104/116 117/105/117
f 48/118/54 37/106/15 38/107/71 118/119/118
f 118/119/118 38/107/71 39/108/69 119/120/119
f 119/109/119 39/21/69 40/110/67 120/122/120
f 40/110/67 41/20/17 42/111/62 120/122/120
f 120/122/120 42/111/62 43/112/64 121/123/121
f 121/113/121 43/18/64 44/114/66 122/125/122
f 44/114/66 45/19/6 46/115/50 122/125/122
f 122/125/122 46/115/50 47/116/52 123/126/123
f 123/117/123 47/12/52 48/118/54 118/119/118
f 123/117/123 118/119/118 119/120/119 124/121/124
f 119/109/119 120/122/120 121/123/121 124/124/124
f 121/113/121 122/125/122 123/126/123 124/127/124
f 60/140/79 49/26/24 50/128/77 125/141/125
f 125/141/125 50/128/77 51/129/75 126/142/126
f 126/130/126 51/24/75 52/131/73 127/144/127
f 52/131/73 53/23/10 54/132/56 127/144/127
f 127/144/127 54/132/56 55/133/58 128/145/128
f 128/134/128 55/15/58 56/135/60 129/147/129
f 56/135/60 57/136/19 58/137/83 129/147/129
f 129/147/129 58/137/83 59/138/81 130/148/130
f 130/139/130 59/27/81 60/140/79 125/141/125
f 130/139/130 125/141/125 126/142/126 131/143/131
f 126/130/126 127/144/127 128/145/128 131/146/131
f 128/134/128 129/147/129 130/148/130 131/149/131
f 72/162/72 61/150/14 62/151/89 132/163/132
f 132/163/132 62/151/89 63/152/87 133/164/133
f 133/153/133 63/31/87 64/154/85 134/166/134
f 64/154/85 65/30/21 66/155/80 134/166/134
f 134/166/134 66/155/80 67/156/82 135/167/135
f 135/157/135 67/28/82 68/158/84 136/169/136
f 68/158/84 69/29/18 70/159/68 136/169/136
f 136/169/136 70/159/68 71/160/70 137/170/137
f 137/161/137 71/22/70 72/162/72 132/163/132
f 137/161/137 132/163/132 133/164/133 138/165/138
f 133/153/133 134/166/134 135/167/135 138/168/138
f 135/157/135 136/169/136 137/170/137 138/171/138
f 84/185/91 73/34/1 74/172/26 139/186/139
f 139/186/139 74/172/26 75/173/28 140/187/140
f 140/174/140 75/2/28 76/175/30 141/189/141
f 76/175/30 77/176/11 78/177/74 141/189/141
f 141/189/141 78/177/74 79/178/76 142/190/142
f 142/179/142 79/25/76 80/180/78 143/192/143
f 80/180/78 81/181/23 82/182/95 143/192/143
f 143/192/143 82/182/95 83/183/93 144/193/144
f 144/184/144 83/35/93 84/185/91 139/186/139
f 144/184/144 139/186/139 140/187/140 145/188/145
f 140/174/140 141/189/141 142/190/142 145/191/145
f 142/179/142 143/192/143 144/193/144 145/194/145
f 96/207/90 85/33/13 86/195/44 146/208/146
f 146/208/146 86/195/44 87/196/46 147/209/147
f 147/197/147 87/9/46 88/198/48 148/211/148
f 88/198/48 89/199/2 90/200/92 148/211/148
f 148/211/148 90/200/92 91/201/94 149/212/149
f 149/202/149 91/36/94 92/203/96 150/214/150
f 92/203/96 93/37/22 94/204/86 150/214/150
f 150/214/150 94/204/86 95/205/88 151/215/151
f 151/206/151 95/32/88 96/207/90 146/208/146
f 151/206/151 146/208/146 147/209/147 152/210/152
f 147/197/147 148/211/148 149/212/149 152/213/152
f 149/202/149 150/214/150 151/215/151 152/216/152
