# This file uses centimeters as units for non-parametric coordinates.

mtllib train_head.mtl
g default
v 0.000010 -0.250000 -0.000000
v 0.000010 -0.250000 -0.000003
v 0.000008 -0.250000 -0.000006
v 0.000006 -0.250000 -0.000008
v 0.000003 -0.250000 -0.000010
v 0.000000 -0.250000 -0.000010
v -0.000003 -0.250000 -0.000010
v -0.000006 -0.250000 -0.000008
v -0.000008 -0.250000 -0.000006
v -0.000010 -0.250000 -0.000003
v -0.000010 -0.250000 -0.000000
v -0.000010 -0.250000 0.000003
v -0.000008 -0.250000 0.000006
v -0.000006 -0.250000 0.000008
v -0.000003 -0.250000 0.000010
v 0.000000 -0.250000 0.000010
v 0.000003 -0.250000 0.000010
v 0.000006 -0.250000 0.000008
v 0.000008 -0.250000 0.000006
v 0.000010 -0.250000 0.000003
v 0.000010 0.250000 0.000000
v 0.000010 0.250000 -0.000003
v 0.000008 0.250000 -0.000006
v 0.000006 0.250000 -0.000008
v 0.000003 0.250000 -0.000010
v 0.000000 0.250000 -0.000010
v -0.000003 0.250000 -0.000010
v -0.000006 0.250000 -0.000008
v -0.000008 0.250000 -0.000006
v -0.000010 0.250000 -0.000003
v -0.000010 0.250000 0.000000
v -0.000010 0.250000 0.000003
v -0.000008 0.250000 0.000006
v -0.000006 0.250000 0.000008
v -0.000003 0.250000 0.000010
v 0.000000 0.250000 0.000010
v 0.000003 0.250000 0.000010
v 0.000006 0.250000 0.000008
v 0.000008 0.250000 0.000006
v 0.000010 0.250000 0.000003
v 1.000000 0.250000 0.000000
v 0.951057 0.250000 -0.309017
v 0.809017 0.250000 -0.587785
v 0.587785 0.250000 -0.809017
v 0.309017 0.250000 -0.951057
v -0.000000 0.250000 -1.000000
v -0.309017 0.250000 -0.951057
v -0.587785 0.250000 -0.809017
v -0.809017 0.250000 -0.587785
v -0.951057 0.250000 -0.309017
v -1.000000 0.250000 0.000000
v 1.000000 -0.250000 -0.000000
v 0.951057 -0.250000 -0.309017
v 0.809017 -0.250000 -0.587785
v 0.587785 -0.250000 -0.809017
v 0.309017 -0.250000 -0.951057
v -0.000000 -0.250000 -1.000000
v -0.309017 -0.250000 -0.951057
v -0.587785 -0.250000 -0.809017
v -0.809017 -0.250000 -0.587785
v -0.951057 -0.250000 -0.309017
v -1.000000 -0.250000 -0.000000
vt 0.000000 1.000000
vt 0.050000 1.000000
vt 0.100000 1.000000
vt 0.150000 1.000000
vt 0.200000 1.000000
vt 0.250000 1.000000
vt 0.300000 1.000000
vt 0.350000 1.000000
vt 0.400000 1.000000
vt 0.450000 1.000000
vt 0.500000 1.000000
vt 0.550000 1.000000
vt 0.600000 1.000000
vt 0.650000 1.000000
vt 0.700000 1.000000
vt 0.750000 1.000000
vt 0.800000 1.000000
vt 0.850000 1.000000
vt 0.900000 1.000000
vt 0.950000 1.000000
vt 1.000000 1.000000
vt 0.000000 0.750000
vt 0.050000 0.750000
vt 0.100000 0.750000
vt 0.150000 0.750000
vt 0.200000 0.750000
vt 0.250000 0.750000
vt 0.300000 0.750000
vt 0.350000 0.750000
vt 0.400000 0.750000
vt 0.450000 0.750000
vt 0.500000 0.750000
vt 0.550000 0.750000
vt 0.600000 0.750000
vt 0.650000 0.750000
vt 0.700000 0.750000
vt 0.750000 0.750000
vt 0.800000 0.750000
vt 0.850000 0.750000
vt 0.900000 0.750000
vt 0.950000 0.750000
vt 1.000000 0.750000
vt 0.000000 0.500000
vt 0.050000 0.500000
vt 0.100000 0.500000
vt 0.150000 0.500000
vt 0.200000 0.500000
vt 0.250000 0.500000
vt 0.300000 0.500000
vt 0.350000 0.500000
vt 0.400000 0.500000
vt 0.450000 0.500000
vt 0.500000 0.500000
vt 0.000000 0.250000
vt 0.050000 0.250000
vt 0.100000 0.250000
vt 0.150000 0.250000
vt 0.200000 0.250000
vt 0.250000 0.250000
vt 0.300000 0.250000
vt 0.350000 0.250000
vt 0.400000 0.250000
vt 0.450000 0.250000
vt 0.500000 0.250000
vt 0.000000 0.000000
vt 0.050000 0.000000
vt 0.100000 0.000000
vt 0.150000 0.000000
vt 0.200000 0.000000
vt 0.250000 0.000000
vt 0.300000 0.000000
vt 0.350000 0.000000
vt 0.400000 0.000000
vt 0.450000 0.000000
vt 0.500000 0.000000
vn -0.951057 0.000000 0.309017
vn -1.000000 0.000000 0.000000
vn -1.000000 0.000000 0.000000
vn -0.951057 0.000000 0.309017
vn -0.809017 0.000000 0.587785
vn -0.809017 0.000000 0.587785
vn -0.587785 0.000000 0.809017
vn -0.587785 0.000000 0.809017
vn -0.309017 0.000000 0.951057
vn -0.309017 0.000000 0.951057
vn 0.000000 0.000000 1.000000
vn 0.000000 0.000000 1.000000
vn 0.309017 0.000000 0.951057
vn 0.309017 0.000000 0.951057
vn 0.587785 0.000000 0.809017
vn 0.587785 0.000000 0.809017
vn 0.809017 0.000000 0.587785
vn 0.809017 0.000000 0.587785
vn 0.951057 -0.000000 0.309017
vn 0.951057 -0.000000 0.309017
vn 1.000000 -0.000000 0.000000
vn 1.000000 -0.000000 0.000000
vn 0.951057 0.000000 -0.309017
vn 0.951057 0.000000 -0.309017
vn 0.809017 0.000000 -0.587785
vn 0.809017 0.000000 -0.587785
vn 0.587785 0.000000 -0.809017
vn 0.587785 0.000000 -0.809017
vn 0.309017 0.000000 -0.951057
vn 0.309017 0.000000 -0.951057
vn 0.000000 0.000000 -1.000000
vn 0.000000 0.000000 -1.000000
vn -0.309017 0.000000 -0.951057
vn -0.309017 0.000000 -0.951057
vn -0.587785 0.000000 -0.809017
vn -0.587785 0.000000 -0.809017
vn -0.809017 0.000000 -0.587785
vn -0.809017 0.000000 -0.587785
vn -0.951057 0.000000 -0.309017
vn -0.951057 0.000000 -0.309017
vn 0.000000 1.000000 0.000000
vn 0.000000 1.000000 0.000000
vn 0.000000 1.000000 0.000000
vn 0.000000 1.000000 0.000000
vn 0.000000 1.000000 0.000000
vn 0.000000 1.000000 0.000000
vn 0.000000 1.000000 0.000000
vn 0.000000 1.000000 0.000000
vn 0.000000 1.000000 0.000000
vn 0.000000 1.000000 0.000000
vn 0.000000 1.000000 0.000000
vn 0.000000 1.000000 0.000000
vn 0.000000 1.000000 0.000000
vn 0.000000 1.000000 0.000000
vn 0.000000 1.000000 0.000000
vn 0.000000 1.000000 0.000000
vn 0.000000 1.000000 0.000000
vn 0.000000 1.000000 0.000000
vn 0.000000 1.000000 0.000000
vn 0.000000 1.000000 0.000000
vn 0.000000 1.000000 0.000000
vn 0.000000 1.000000 0.000000
vn 0.951057 0.000000 -0.309017
vn 0.987688 0.000000 -0.156434
vn 0.987688 0.000000 -0.156434
vn 0.951057 0.000000 -0.309017
vn 0.809017 0.000000 -0.587785
vn 0.809017 0.000000 -0.587785
vn 0.587785 0.000000 -0.809017
vn 0.587785 0.000000 -0.809017
vn 0.309017 0.000000 -0.951057
vn 0.309017 0.000000 -0.951057
vn 0.000000 0.000000 -1.000000
vn 0.000000 0.000000 -1.000000
vn -0.309017 0.000000 -0.951057
vn -0.309017 0.000000 -0.951057
vn -0.587785 0.000000 -0.809017
vn -0.587785 0.000000 -0.809017
vn -0.809017 0.000000 -0.587785
vn -0.809017 0.000000 -0.587785
vn -0.951056 0.000000 -0.309017
vn -0.951056 0.000000 -0.309017
vn -0.987688 0.000000 -0.156434
vn -0.987688 0.000000 -0.156434
vn 0.000000 -1.000000 0.000000
vn 0.000000 -1.000000 0.000000
vn 0.000000 -1.000000 0.000000
vn 0.000000 -1.000000 0.000000
vn 0.000000 -1.000000 0.000000
vn 0.000000 -1.000000 0.000000
vn 0.000000 -1.000000 0.000000
vn 0.000000 -1.000000 0.000000
vn 0.000000 -1.000000 0.000000
vn 0.000000 -1.000000 0.000000
vn 0.000000 -1.000000 0.000000
vn 0.000000 -1.000000 0.000000
vn 0.000000 -1.000000 0.000000
vn 0.000000 -1.000000 0.000000
vn 0.000000 -1.000000 0.000000
vn 0.000000 -1.000000 0.000000
vn 0.000000 -1.000000 0.000000
vn 0.000000 -1.000000 0.000000
vn 0.000000 -1.000000 0.000000
vn 0.000000 -1.000000 0.000000
vn 0.000000 -1.000000 0.000000
vn 0.000000 -1.000000 0.000000
s 1
g pPipe1
usemtl initialShadingGroup
f 2/2/1 1/1/2 21/22/3 22/23/4
f 3/3/5 2/2/1 22/23/4 23/24/6
f 4/4/7 3/3/5 23/24/6 24/25/8
f 5/5/9 4/4/7 24/25/8 25/26/10
f 6/6/11 5/5/9 25/26/10 26/27/12
f 7/7/13 6/6/11 26/27/12 27/28/14
f 8/8/15 7/7/13 27/28/14 28/29/16
f 9/9/17 8/8/15 28/29/16 29/30/18
f 10/10/19 9/9/17 29/30/18 30/31/20
f 11/11/21 10/10/19 30/31/20 31/32/22
f 12/12/23 11/11/21 31/32/22 32/33/24
f 13/13/25 12/12/23 32/33/24 33/34/26
f 14/14/27 13/13/25 33/34/26 34/35/28
f 15/15/29 14/14/27 34/35/28 35/36/30
f 16/16/31 15/15/29 35/36/30 36/37/32
f 17/17/33 16/16/31 36/37/32 37/38/34
f 18/18/35 17/17/33 37/38/34 38/39/36
f 19/19/37 18/18/35 38/39/36 39/40/38
f 20/20/39 19/19/37 39/40/38 40/41/40
f 1/21/2 20/20/39 40/41/40 21/42/3
s 2
f 22/23/41 21/22/42 41/43/43 42/44/44
f 23/24/45 22/23/41 42/44/44 43/45/46
f 24/25/47 23/24/45 43/45/46 44/46/48
f 25/26/49 24/25/47 44/46/48 45/47/50
f 26/27/51 25/26/49 45/47/50 46/48/52
f 27/28/53 26/27/51 46/48/52 47/49/54
f 28/29/55 27/28/53 47/49/54 48/50/56
f 29/30/57 28/29/55 48/50/56 49/51/58
f 30/31/59 29/30/57 49/51/58 50/52/60
f 31/32/61 30/31/59 50/52/60 51/53/62
s 3
f 42/44/63 41/43/64 52/54/65 53/55/66
f 43/45/67 42/44/63 53/55/66 54/56/68
f 44/46/69 43/45/67 54/56/68 55/57/70
f 45/47/71 44/46/69 55/57/70 56/58/72
f 46/48/73 45/47/71 56/58/72 57/59/74
f 47/49/75 46/48/73 57/59/74 58/60/76
f 48/50/77 47/49/75 58/60/76 59/61/78
f 49/51/79 48/50/77 59/61/78 60/62/80
f 50/52/81 49/51/79 60/62/80 61/63/82
f 51/53/83 50/52/81 61/63/82 62/64/84
s 4
f 53/55/85 52/54/86 1/65/87 2/66/88
f 54/56/89 53/55/85 2/66/88 3/67/90
f 55/57/91 54/56/89 3/67/90 4/68/92
f 56/58/93 55/57/91 4/68/92 5/69/94
f 57/59/95 56/58/93 5/69/94 6/70/96
f 58/60/97 57/59/95 6/70/96 7/71/98
f 59/61/99 58/60/97 7/71/98 8/72/100
f 60/62/101 59/61/99 8/72/100 9/73/102
f 61/63/103 60/62/101 9/73/102 10/74/104
f 62/64/105 61/63/103 10/74/104 11/75/106
